<?xml version="1.0" standalone="no"?>
<!DOCTYPE svg PUBLIC "-//W3C//DTD SVG 20010904//EN"
 "http://www.w3.org/TR/2001/REC-SVG-20010904/DTD/svg10.dtd">
<svg version="1.0" xmlns="http://www.w3.org/2000/svg"
 width="688.000000pt" height="688.000000pt" viewBox="0 0 688.000000 688.000000"
 preserveAspectRatio="xMidYMid meet">
<metadata>
Created by potrace 1.14, written by Peter Selinger 2001-2017
</metadata>
<g transform="translate(0.000000,688.000000) scale(0.100000,-0.100000)"
fill="#000000" stroke="none">
<path d="M3330 6840 c0 -3 -12 -6 -27 -6 -34 -2 -51 -7 -124 -32 -142 -50
-275 -154 -361 -283 l-36 -54 45 -85 c26 -47 55 -103 66 -125 11 -22 23 -42
27 -45 3 -3 17 -27 30 -55 13 -27 26 -52 30 -55 3 -3 20 -32 37 -65 35 -69 80
-153 113 -210 12 -22 38 -69 58 -105 19 -36 42 -78 52 -95 17 -29 83 -151 118
-217 9 -18 19 -35 22 -38 3 -3 25 -43 49 -90 24 -47 51 -93 59 -102 8 -10 12
-18 7 -18 -4 0 -3 -6 3 -12 9 -12 58 -100 147 -263 21 -38 48 -88 60 -110 26
-47 72 -130 128 -235 22 -41 43 -79 47 -85 4 -5 25 -44 47 -85 49 -92 96 -177
137 -250 17 -30 40 -73 51 -95 11 -22 22 -42 25 -45 3 -3 14 -23 25 -45 11
-22 22 -42 25 -45 3 -3 13 -21 22 -40 10 -19 34 -64 54 -100 20 -36 51 -93 70
-127 51 -94 58 -107 73 -125 8 -10 11 -18 6 -18 -4 0 -3 -6 3 -12 13 -17 49
-80 84 -150 16 -32 34 -60 39 -64 5 -3 7 -10 4 -15 -4 -5 -1 -9 4 -9 6 0 11
-5 11 -11 0 -6 17 -41 38 -77 22 -37 58 -103 82 -147 24 -44 53 -98 65 -120
12 -22 37 -67 55 -100 18 -33 43 -78 55 -100 32 -57 77 -140 115 -210 52 -96
91 -168 110 -200 9 -16 34 -61 55 -100 37 -69 121 -223 198 -360 21 -38 44
-82 50 -98 6 -15 15 -27 19 -27 4 0 8 -6 8 -13 0 -7 13 -34 29 -59 16 -25 27
-49 24 -52 -4 -3 -1 -6 5 -6 7 0 12 -5 12 -10 0 -6 31 -65 68 -133 38 -67 85
-151 104 -187 19 -36 49 -90 66 -120 80 -145 114 -208 135 -248 l22 -43 60 2
c107 4 254 46 327 95 21 13 40 24 44 24 16 0 145 122 183 172 85 116 142 264
145 380 1 21 5 38 9 38 5 0 5 5 2 11 -4 6 -8 34 -10 62 -1 29 -6 71 -10 94 -3
24 -6 44 -5 45 3 6 -69 166 -103 228 -20 36 -48 90 -64 120 -15 30 -30 57 -33
60 -3 3 -12 19 -20 35 -8 17 -31 59 -51 95 -20 36 -58 106 -84 155 -66 123
-104 193 -165 305 -52 96 -114 211 -154 285 -11 22 -23 42 -26 45 -3 3 -20 34
-38 70 -19 36 -54 101 -78 145 -24 44 -55 103 -70 130 -14 28 -31 59 -37 70
-11 19 -80 146 -155 285 -19 36 -47 88 -62 115 -15 28 -47 86 -70 130 -24 44
-52 96 -63 115 -11 19 -38 69 -59 110 -22 41 -53 98 -68 125 -15 28 -55 102
-90 165 -34 63 -66 120 -71 126 -5 6 -7 13 -4 16 3 3 -1 11 -10 18 -8 7 -15
16 -15 20 0 6 -178 338 -231 430 -11 19 -32 60 -47 90 -15 30 -29 57 -32 60
-3 3 -21 34 -39 70 -19 36 -43 81 -54 100 -11 19 -38 69 -60 110 -22 41 -47
89 -57 105 -10 17 -41 75 -70 130 -29 55 -56 105 -60 110 -4 6 -33 60 -65 120
-32 61 -61 115 -65 120 -4 6 -31 55 -60 110 -84 160 -112 209 -128 228 -8 9
-12 17 -8 17 7 0 -39 60 -93 122 -80 92 -248 183 -396 214 -38 8 -235 12 -235
4z"/>
<path d="M2233 5453 c-11 -26 -62 -121 -137 -258 -19 -33 -53 -96 -76 -140
-24 -44 -58 -106 -77 -138 -18 -32 -33 -65 -33 -73 0 -7 -4 -14 -9 -14 -5 0
-14 -12 -20 -27 -5 -16 -28 -59 -50 -98 -22 -38 -53 -95 -68 -125 -15 -30 -30
-57 -33 -60 -3 -3 -18 -30 -34 -60 -15 -30 -49 -93 -75 -140 -63 -117 -81
-151 -116 -217 -16 -32 -32 -60 -35 -63 -3 -3 -21 -36 -41 -75 -20 -38 -60
-113 -89 -165 -29 -52 -70 -129 -92 -170 -23 -41 -53 -97 -68 -125 -15 -27
-40 -75 -56 -105 -16 -30 -31 -57 -34 -60 -3 -3 -14 -23 -25 -45 -11 -22 -53
-100 -92 -173 -40 -73 -73 -137 -73 -142 0 -4 -3 -10 -7 -12 -5 -1 -16 -19
-25 -38 -9 -19 -35 -66 -56 -105 -21 -38 -56 -104 -79 -145 -82 -154 -116
-216 -138 -255 -13 -22 -37 -67 -54 -100 -35 -66 -77 -144 -135 -250 -97 -178
-116 -215 -136 -266 -12 -29 -24 -63 -26 -74 -2 -11 -8 -42 -13 -70 -12 -62
-7 -255 7 -282 6 -11 13 -30 15 -44 2 -13 10 -37 16 -54 7 -16 17 -40 22 -53
12 -32 73 -126 106 -163 97 -111 204 -180 358 -231 l70 -23 1993 -3 c1095 -1
1992 -1 1992 1 0 8 -34 74 -52 100 -11 15 -16 27 -12 27 3 0 2 6 -4 13 -5 6
-21 32 -35 57 -62 113 -184 336 -190 350 -4 8 -23 42 -43 75 -19 33 -44 78
-55 100 -20 40 -66 126 -109 200 -12 22 -41 75 -64 118 l-41 78 -1290 -1
c-709 0 -1295 -1 -1302 0 -10 0 51 130 94 198 8 13 34 60 57 105 24 45 56 105
71 132 15 28 37 68 48 90 12 22 26 43 30 46 5 3 7 8 6 10 -2 2 26 58 62 124
36 66 81 149 100 185 19 36 36 67 39 70 3 3 15 25 28 50 12 25 42 81 67 125
24 44 57 105 73 135 50 94 104 193 127 235 19 34 117 214 261 483 39 71 85
156 140 257 85 157 79 142 63 172 -8 15 -37 68 -64 118 -28 49 -59 108 -70
130 -11 22 -23 42 -27 43 -5 2 -8 8 -8 13 0 5 -20 44 -43 87 -24 42 -60 106
-79 142 -65 120 -101 185 -129 235 -15 28 -36 66 -47 85 -72 136 -155 280
-161 280 -3 0 -12 -12 -18 -27z"/>
</g>
</svg>
